<?xml version="1.0" encoding="utf-8"?>
<!-- Generator: Adobe Illustrator 22.1.0, SVG Export Plug-In . SVG Version: 6.00 Build 0)  -->
<svg version="1.1" id="Capa_1" xmlns="http://www.w3.org/2000/svg" xmlns:xlink="http://www.w3.org/1999/xlink" x="0px" y="0px"
	 viewBox="0 0 62.7 60" style="enable-background:new 0 0 62.7 60;" xml:space="preserve">
<style type="text/css">
	.st0{fill:#004157;}
</style>
<g>
	<path class="st0" d="M58.8,27h-3.5v-6.3c0-1.5-1.2-2.7-2.7-2.7h-3.3v-2.4l-0.5-0.5c0,0,0,0,0,0l-7.3-7.3L33.8,0H9.3v11H4.1
		c-1.5,0-2.7,1.2-2.7,2.7v43.7h0c0,0.6,0.2,1.1,0.5,1.6c0.5,0.6,1.2,1,2,1h44.8c0.3,0,0.6-0.1,0.9-0.2c0.8-0.3,1.3-0.9,1.5-1.6
		l4.1-11.3h-2.1l-3.9,10.7c-0.1,0.2-0.3,0.4-0.5,0.4H3.9c-0.2,0-0.4-0.1-0.5-0.2c-0.1-0.1-0.2-0.3-0.1-0.4l6-16.5l4.2-11.4l0-0.1
		c0.1-0.2,0.3-0.4,0.5-0.4h44.8c0.4,0,0.5,0.5,0.5,0.8l-2.2,6l-3.3,9.1h2c0,0,0.1,0,0.1,0l2.7-7.4l2.7-7.4V30
		C61.3,28.2,60.3,27,58.8,27z M9.3,35l-6,16.4V13.7c0-0.4,0.3-0.7,0.7-0.7h5.3V35z M34.3,3.4L45.9,15H34.3V3.4z M47.3,27H14.1
		c-0.1,0-0.3,0-0.4,0c-1,0.2-1.8,0.9-2,1.8l-0.3,0.8V2h21v15h15V27z M53.3,27h-4v-7h3.3c0.4,0,0.7,0.3,0.7,0.7V27z"/>
	<path class="st0" d="M17.3,17h10c0.6,0,1-0.4,1-1s-0.4-1-1-1h-10c-0.6,0-1,0.4-1,1C16.3,16.6,16.8,17,17.3,17z"/>
	<path class="st0" d="M17.3,10h10c0.6,0,1-0.4,1-1s-0.4-1-1-1h-10c-0.6,0-1,0.4-1,1S16.8,10,17.3,10z"/>
	<path class="st0" d="M17.3,24h24c0.6,0,1-0.4,1-1s-0.4-1-1-1h-24c-0.6,0-1,0.4-1,1S16.8,24,17.3,24z"/>
</g>
<path class="st0" d="M58.6,37.5c-0.5-0.6-1-1.2-1.5-1.7c-2.5-2.5-6-4-9.8-4c-7.8,0-14.1,6.3-14.1,14.1c0,5.1,2.7,9.6,6.9,12.1
	c2.1,1.3,4.6,2,7.2,2c0.8,0,1.5-0.1,2.2-0.2c6.7-1.1,11.8-6.9,11.8-13.9C61.4,42.8,60.4,39.9,58.6,37.5z M55.8,46.9h-7.5v7.5
	c0,0.5-0.5,1-1,1s-1-0.5-1-1v-7.5h-7.5c-0.5,0-1-0.5-1-1s0.5-1,1-1h7.5v-7.5c0-0.5,0.5-1,1-1s1,0.5,1,1v7.5h7.5c0,0,0.1,0,0.1,0
	c0.5,0,0.9,0.5,0.9,1C56.8,46.5,56.4,46.9,55.8,46.9z"/>
</svg>
