<?xml version="1.0" encoding="utf-8"?>
<!-- Generator: Adobe Illustrator 22.1.0, SVG Export Plug-In . SVG Version: 6.00 Build 0)  -->
<svg version="1.1" id="Capa_1" xmlns="http://www.w3.org/2000/svg" xmlns:xlink="http://www.w3.org/1999/xlink" x="0px" y="0px"
	 viewBox="0 0 61.4 60" style="enable-background:new 0 0 61.4 60;" xml:space="preserve">
<style type="text/css">
	.st0{fill:#004157;}
</style>
<g>
	<g>
		<path class="st0" d="M33,0H0.6v60h47v-5.1c-0.1,0.4-0.5,0.6-0.9,0.6c-0.5,0-1-0.5-1-1V47h-0.1v11h-43V2h29v14h14v29h0.1v-7.5
			c0-0.5,0.5-1,1-1c0.4,0,0.8,0.3,0.9,0.6V14.6L33,0z M33.6,14V3.4L44.2,14H33.6z"/>
		<path class="st0" d="M10.6,17h9c0.6,0,1-0.4,1-1s-0.4-1-1-1h-9c-0.6,0-1,0.4-1,1C9.6,16.6,10.1,17,10.6,17z"/>
		<path class="st0" d="M27.6,37h-17c-0.6,0-1,0.4-1,1s0.4,1,1,1h17c0.6,0,1-0.4,1-1S28.2,37,27.6,37z"/>
		<path class="st0" d="M37.6,30h-7c-0.6,0-1,0.4-1,1s0.4,1,1,1h7c0.6,0,1-0.4,1-1S38.2,30,37.6,30z"/>
		<path class="st0" d="M10.6,25h5c0.6,0,1-0.4,1-1s-0.4-1-1-1h-5c-0.6,0-1,0.4-1,1S10.1,25,10.6,25z"/>
		<path class="st0" d="M25.6,25h7c0.6,0,1-0.4,1-1s-0.4-1-1-1h-7c-0.6,0-1,0.4-1,1S25.1,25,25.6,25z"/>
		<path class="st0" d="M19.6,24c0,0.3,0.1,0.5,0.3,0.7c0.2,0.2,0.4,0.3,0.7,0.3s0.5-0.1,0.7-0.3c0.2-0.2,0.3-0.5,0.3-0.7
			c0-0.3-0.1-0.5-0.3-0.7c-0.4-0.4-1-0.4-1.4,0C19.7,23.5,19.6,23.7,19.6,24z"/>
		<path class="st0" d="M15.6,30c-0.6,0-1,0.4-1,1s0.4,1,1,1h10c0.6,0,1-0.4,1-1s-0.4-1-1-1H15.6z"/>
		<path class="st0" d="M10.6,32c0.3,0,0.5-0.1,0.7-0.3c0.2-0.2,0.3-0.5,0.3-0.7c0-0.3-0.1-0.5-0.3-0.7c-0.4-0.4-1-0.4-1.4,0
			c-0.2,0.2-0.3,0.4-0.3,0.7c0,0.3,0.1,0.5,0.3,0.7C10.1,31.9,10.4,32,10.6,32z"/>
		<path class="st0" d="M38.6,45h-0.4c-0.5,0-1,0.5-1,1h-6.6c-0.5,0-1-0.5-1-1s0.5-1,1-1h7C38.2,44,38.6,44.5,38.6,45z"/>
		<path class="st0" d="M25.6,44h-10c-0.6,0-1,0.4-1,1s0.4,1,1,1h10c0.6,0,1-0.4,1-1S26.2,44,25.6,44z"/>
		<path class="st0" d="M9.9,44.3c-0.2,0.2-0.3,0.4-0.3,0.7c0,0.3,0.1,0.5,0.3,0.7c0.2,0.2,0.4,0.3,0.7,0.3c0.3,0,0.5-0.1,0.7-0.3
			c0.2-0.2,0.3-0.5,0.3-0.7c0-0.3-0.1-0.5-0.3-0.7C11,43.9,10.3,43.9,9.9,44.3z"/>
		<path class="st0" d="M36.9,23.3c-0.2,0.2-0.3,0.4-0.3,0.7c0,0.3,0.1,0.5,0.3,0.7c0.2,0.2,0.5,0.3,0.7,0.3s0.5-0.1,0.7-0.3
			c0.2-0.2,0.3-0.5,0.3-0.7c0-0.3-0.1-0.5-0.3-0.7C37.9,22.9,37.3,22.9,36.9,23.3z"/>
		<path class="st0" d="M33.3,38.7c0.2-0.2,0.3-0.5,0.3-0.7c0-0.3-0.1-0.5-0.3-0.7c-0.4-0.4-1-0.4-1.4,0c-0.2,0.2-0.3,0.4-0.3,0.7
			c0,0.3,0.1,0.5,0.3,0.7c0.2,0.2,0.4,0.3,0.7,0.3S33.1,38.9,33.3,38.7z"/>
		<path class="st0" d="M36.9,37.3c-0.2,0.2-0.3,0.4-0.3,0.7c0,0.3,0.1,0.5,0.3,0.7c0.2,0.2,0.4,0.3,0.7,0.3s0.5-0.1,0.7-0.3
			c0.2-0.2,0.3-0.5,0.3-0.7c0-0.3-0.1-0.5-0.3-0.7C38,36.9,37.3,36.9,36.9,37.3z"/>
	</g>
	<g>
		<path class="st0" d="M47.6,32c-0.3,0-0.6,0-0.9,0c-0.4,0-0.7,0-1.1,0c-6.6,0.5-11.9,5.6-12.9,12c-0.1,0.7-0.1,1.3-0.1,2
			c0,5.1,2.7,9.5,6.7,12c1.8,1.1,3.8,1.8,5.9,2c0.5,0,1,0.1,1.4,0.1c7.8,0,14.1-6.3,14.1-14.1C60.8,38.5,55,32.4,47.6,32z M55.2,47
			h-7.5v7.5c0,0.1,0,0.2-0.1,0.4c-0.1,0.4-0.5,0.6-0.9,0.6c-0.5,0-1-0.5-1-1V47h-7.5c-0.5,0-1-0.5-1-1s0.5-1,1-1h7.5v-7.5
			c0-0.5,0.5-1,1-1c0.4,0,0.8,0.3,0.9,0.6c0,0.1,0.1,0.2,0.1,0.4V45h7.5c0.5,0,1,0.5,1,1S55.7,47,55.2,47z"/>
	</g>
</g>
</svg>
